<?xml version="1.0" encoding="iso-8859-1"?>
<!-- Generator: Adobe Illustrator 19.0.0, SVG Export Plug-In . SVG Version: 6.00 Build 0)  -->
<svg version="1.1" id="Layer_1" xmlns="http://www.w3.org/2000/svg" xmlns:xlink="http://www.w3.org/1999/xlink" x="0px" y="0px"
	 viewBox="0 0 384.955 384.955" style="enable-background:new 0 0 384.955 384.955;" xml:space="preserve">
<g>
	<polygon style="fill:#3E4A57;" points="330.985,66.233 181.414,66.233 157.247,156.615 306.818,156.615 	"/>
	<path style="fill:#3E4A57;" d="M32.282,156.615c-9.35,0-16.929,7.58-16.929,16.929v128.249c0,9.349,7.579,16.929,16.929,16.929
		h259.42V156.615H32.282z"/>
	<path style="fill:#333E48;" d="M368.026,318.722c9.35,0,16.929-7.58,16.929-16.929V173.544c0-9.35-7.579-16.929-16.929-16.929
		H263.711c-9.35,0-16.929,7.58-16.929,16.929v128.249c0,9.349,7.579,16.929,16.929,16.929H368.026z"/>
	<polygon style="fill:#E8E8E8;" points="312.599,78.498 163.027,78.498 142.131,156.615 291.702,156.615 	"/>
	<circle style="fill:#FFFFFF;" cx="217.76" cy="220.519" r="6.755"/>
	<circle style="fill:#FF8189;" cx="217.76" cy="197.228" r="6.755"/>
	<g>
		<path style="fill:#B3B8BA;" d="M12.662,293.396C5.669,293.396,0,299.065,0,306.059c0,6.993,5.669,12.663,12.662,12.663h89.811
			v-25.326H12.662z"/>
		<path style="fill:#A4A9AD;" d="M102.473,293.396c-6.993,0-12.662,5.669-12.662,12.663c0,6.993,5.669,12.663,12.662,12.663h89.811
			v-25.326H102.473z"/>
	</g>
	<rect x="68.543" y="250.381" style="fill:#333E48;" width="123.74" height="43.015"/>
	<rect x="68.543" y="156.615" style="fill:#A4A9AD;" width="123.74" height="43.015"/>
	<rect x="297.347" y="204.336" style="fill:#A4A9AD;" width="37.046" height="18.855"/>
</g>
<g>
</g>
<g>
</g>
<g>
</g>
<g>
</g>
<g>
</g>
<g>
</g>
<g>
</g>
<g>
</g>
<g>
</g>
<g>
</g>
<g>
</g>
<g>
</g>
<g>
</g>
<g>
</g>
<g>
</g>
</svg>
