<?xml version="1.0" encoding="iso-8859-1"?>
<!-- Generator: Adobe Illustrator 19.0.0, SVG Export Plug-In . SVG Version: 6.00 Build 0)  -->
<svg version="1.1" id="Layer_1" xmlns="http://www.w3.org/2000/svg" xmlns:xlink="http://www.w3.org/1999/xlink" x="0px" y="0px"
	 viewBox="0 0 512 512" style="enable-background:new 0 0 512 512;" xml:space="preserve">
<path style="fill:#F95428;" d="M497.941,28.723v100.006c0,15.861-12.862,28.711-28.723,28.711H411.38l-49.926,32.304l0.964-22.44
	l0.428-9.864h-27.033c-15.861,0-28.723-12.85-28.723-28.711V28.723C307.091,12.862,319.953,0,335.813,0h133.405
	C485.079,0,497.941,12.862,497.941,28.723z"/>
<g>
	<path style="fill:#E54728;" d="M319.584,128.729V28.723C319.584,12.862,332.446,0,348.307,0h-12.493
		c-15.861,0-28.723,12.862-28.723,28.723v100.006c0,15.861,12.862,28.711,28.723,28.711h12.493
		C332.446,157.44,319.584,144.589,319.584,128.729z"/>
	<polygon style="fill:#E54728;" points="374.911,167.303 375.34,157.44 362.846,157.44 362.418,167.303 361.454,189.744 
		374.305,181.429 	"/>
</g>
<g>
	<rect x="343.566" y="32.07" style="fill:#4D4D4D;" width="117.913" height="14.278"/>
	<rect x="388.102" y="113.63" style="fill:#4D4D4D;" width="73.377" height="14.278"/>
	<rect x="343.566" y="113.63" style="fill:#4D4D4D;" width="28.337" height="14.278"/>
	<rect x="437.944" y="72.854" style="fill:#4D4D4D;" width="23.528" height="14.278"/>
	<rect x="343.566" y="72.854" style="fill:#4D4D4D;" width="75.353" height="14.278"/>
</g>
<path style="fill:#70E5CF;" d="M302.688,465.073V512H14.604v-46.927c0-46.011,31.424-84.681,73.96-95.746
	c5.64,3.772,11.827,6.83,18.478,9.078h103.207c6.627-2.249,12.826-5.319,18.454-9.078c21.691,5.64,40.478,18.443,53.697,35.743
	C295.133,421.715,302.688,442.501,302.688,465.073z"/>
<path style="fill:#35D8B9;" d="M50.882,462.122c0-39.719,17.792-73.908,43.373-89.347c-1.951-1.074-3.853-2.219-5.691-3.448
	c-42.537,11.065-73.96,49.735-73.96,95.746V512h36.409c-0.083-1.059-0.131-2.13-0.131-3.213V462.122z"/>
<g>
	<path style="fill:#F95428;" d="M121.592,433.706l-26.619,14.316l12.073-69.622l38.296,12.898c4.322,1.452,8.796,2.166,13.305,2.166
		v20.297L121.592,433.706z"/>
	<path style="fill:#F95428;" d="M210.247,378.4l12.051,69.622l-26.619-14.316l-37.031-19.945v-20.297
		c4.475,0,8.983-0.715,13.282-2.166l38.296-12.898H210.247z"/>
</g>
<g>
	<polygon style="fill:#E54728;" points="195.679,433.706 158.646,470.739 121.592,433.706 158.646,413.761 	"/>
	<rect x="152.597" y="382.998" style="fill:#E54728;" width="12.089" height="129.002"/>
</g>
<path style="fill:#F2F2F2;" d="M255.932,340.5c-6.015,12.71-15.405,23.673-27.225,31.578c-5.629,3.76-11.831,6.829-18.462,9.071
	h-0.021l-38.296,12.898c-4.299,1.452-8.807,2.166-13.282,2.166c-4.508,0-8.983-0.715-13.305-2.166l-38.296-12.898
	c-6.652-2.243-12.842-5.3-18.483-9.071C67.243,357.84,53.85,333.65,53.85,307.119v-13.931l-11.754-32.766h68.028
	c44.871,0,85.158-27.554,101.42-69.391l71.897,72.612l-20.023,29.544v13.931C263.42,318.927,260.759,330.285,255.932,340.5z"/>
<path style="fill:#70E5CF;" d="M248.851,345.447H174.04c-2.733,0-4.947-2.215-4.947-4.947c0-2.733,2.215-4.947,4.947-4.947h74.811
	c14.447,0,26.201-11.754,26.201-26.201V291.92c0-2.733,2.215-4.947,4.947-4.947c2.733,0,4.947,2.215,4.947,4.947v17.431
	C284.949,329.255,268.755,345.447,248.851,345.447z"/>
<path style="fill:#808080;" d="M263.42,212.196v32.184l11.226,13.82l-11.226,5.442l-51.876-72.612
	c-16.262,41.837-56.548,69.391-101.42,69.391H53.851v-48.225c0-48.357,39.209-87.577,87.577-87.577h34.415
	c2.035,0,4.057,0.065,6.059,0.209C227.444,127.94,263.42,165.873,263.42,212.196z"/>
<path style="fill:#E6E6E6;" d="M160.81,394.046l-38.296-12.898c-6.652-2.243-12.842-5.3-18.483-9.071
	c-21.32-14.239-34.712-38.428-34.712-64.959v-13.931l-0.292-32.766H42.097l11.754,32.766v13.931
	c0,26.531,13.392,50.72,34.712,64.959c5.641,3.772,11.831,6.828,18.483,9.071l38.296,12.898c4.322,1.452,8.796,2.166,13.305,2.166
	c2.581,0,5.171-0.246,7.727-0.725C164.498,395.135,162.639,394.662,160.81,394.046z"/>
<path style="fill:#666666;" d="M156.896,124.619h-15.468c-48.368,0-87.577,39.219-87.577,87.577v48.225h15.468v-48.225
	C69.319,163.84,108.528,124.619,156.896,124.619z"/>
<rect x="208.972" y="477.935" style="fill:#35D8B9;" width="53.876" height="12.095"/>
<path style="fill:#70E5CF;" d="M296.626,276.526c-3.643,0-6.598-2.953-6.598-6.598v-61.284c0-13.512-2.451-26.689-7.284-39.168
	c-7.822-20.206-21.387-37.466-39.229-49.915c-18.247-12.732-39.701-19.462-62.043-19.462h-45.673
	c-22.342,0-43.797,6.732-62.044,19.467C55.911,132.019,42.35,149.28,34.54,169.482c-0.043,0.111-0.088,0.219-0.136,0.326
	c-4.744,12.393-7.15,25.458-7.15,38.835v61.284c0,3.643-2.954,6.598-6.598,6.598s-6.598-2.953-6.598-6.598v-61.284
	c0-15.129,2.746-29.904,8.162-43.918c0.045-0.117,0.094-0.232,0.145-0.346c8.781-22.512,23.932-41.742,43.836-55.633
	c20.474-14.286,44.539-21.84,69.596-21.84h45.673c25.054,0,49.12,7.551,69.594,21.836c20.001,13.957,35.211,33.311,43.984,55.97
	c5.423,14.003,8.174,28.785,8.174,43.932v61.284C303.222,273.573,300.269,276.526,296.626,276.526z"/>
<g>
	<path style="fill:#E54728;" d="M296.626,244.38v48.808c0,7.697-6.245,13.931-13.931,13.931h-5.344
		c-7.697,0-13.931-6.235-13.931-13.931V244.38c0-7.697,6.235-13.931,13.931-13.931h5.344
		C290.38,230.448,296.626,236.683,296.626,244.38z"/>
	<path style="fill:#E54728;" d="M53.851,260.421v32.766c0,7.697-6.235,13.931-13.92,13.931h-5.354
		c-7.697,0-13.92-6.235-13.92-13.931v-46.136v-2.672c0-7.697,6.223-13.931,13.92-13.931h5.354c7.685,0,13.92,6.235,13.92,13.931
		V260.421z"/>
</g>
<g>
	<path style="fill:#F95428;" d="M296.626,244.38v48.808c0,7.697-6.245,13.931-13.931,13.931h-3.848v-76.671h3.848
		C290.38,230.448,296.626,236.683,296.626,244.38z"/>
	<path style="fill:#F95428;" d="M20.657,244.38v48.808c0,7.697,6.245,13.931,13.931,13.931h3.848v-76.671h-3.848
		C26.901,230.448,20.657,236.683,20.657,244.38z"/>
</g>
<g>
</g>
<g>
</g>
<g>
</g>
<g>
</g>
<g>
</g>
<g>
</g>
<g>
</g>
<g>
</g>
<g>
</g>
<g>
</g>
<g>
</g>
<g>
</g>
<g>
</g>
<g>
</g>
<g>
</g>
</svg>
